<?xml version="1.0" encoding="utf-8"?>
<!-- Generator: Adobe Illustrator 25.4.1, SVG Export Plug-In . SVG Version: 6.00 Build 0)  -->
<svg version="1.2" baseProfile="tiny" id="Layer_1" xmlns="http://www.w3.org/2000/svg" xmlns:xlink="http://www.w3.org/1999/xlink"
	 x="0px" y="0px" viewBox="0 0 760.49 220.42" overflow="visible" xml:space="preserve">
<g>
	<path fill="#344854" d="M345.33,96.17l-15.86,58.59h-19.84l-9.24-38.01l-9.55,38.01H271.1l-15.96-58.59h17.96l8.29,41.89
		l9.87-41.89h19l9.97,41.68l8.19-41.68H345.33z"/>
	<path fill="#344854" d="M353.47,87.3c-2-1.85-2.99-4.15-2.99-6.88c0-2.8,1-5.13,2.99-6.98c2-1.85,4.57-2.78,7.72-2.78
		c3.08,0,5.62,0.93,7.61,2.78c2,1.86,2.99,4.18,2.99,6.98c0,2.73-1,5.02-2.99,6.88c-2,1.86-4.53,2.78-7.61,2.78
		C358.04,90.08,355.46,89.15,353.47,87.3z M370.11,96.17v58.59h-17.96V96.17H370.11z"/>
	<path fill="#344854" d="M442.98,96.17l-36.75,86.42h-19.32l13.44-29.82l-23.84-56.59h20.06l13.54,36.64l13.44-36.64H442.98z"/>
	<path fill="#344854" d="M449.33,109.5c2.27-4.55,5.37-8.05,9.29-10.5c3.92-2.45,8.3-3.67,13.12-3.67c4.13,0,7.75,0.84,10.87,2.52
		c3.11,1.68,5.51,3.88,7.19,6.62v-8.29h17.96v58.59h-17.96v-8.29c-1.75,2.73-4.18,4.93-7.3,6.62c-3.12,1.68-6.74,2.52-10.87,2.52
		c-4.76,0-9.1-1.24-13.02-3.73c-3.92-2.48-7.02-6.02-9.29-10.6c-2.28-4.58-3.41-9.89-3.41-15.91
		C445.92,119.34,447.06,114.05,449.33,109.5z M486.08,114.86c-2.49-2.59-5.51-3.88-9.08-3.88c-3.57,0-6.6,1.28-9.08,3.83
		c-2.49,2.56-3.73,6.07-3.73,10.55c0,4.48,1.24,8.03,3.73,10.66c2.48,2.62,5.51,3.94,9.08,3.94c3.57,0,6.6-1.29,9.08-3.89
		c2.48-2.59,3.73-6.12,3.73-10.6C489.81,120.99,488.57,117.45,486.08,114.86z"/>
	<path fill="#344854" d="M538.74,77.06v77.7h-17.96v-77.7H538.74z"/>
	<path fill="#344854" d="M551.6,109.5c2.27-4.55,5.37-8.05,9.29-10.5c3.92-2.45,8.3-3.67,13.12-3.67c4.13,0,7.75,0.84,10.87,2.52
		c3.11,1.68,5.51,3.88,7.19,6.62v-8.29h17.96v58.59h-17.96v-8.29c-1.75,2.73-4.18,4.93-7.3,6.62c-3.12,1.68-6.74,2.52-10.87,2.52
		c-4.76,0-9.1-1.24-13.02-3.73c-3.92-2.48-7.02-6.02-9.29-10.6c-2.28-4.58-3.41-9.89-3.41-15.91
		C548.19,119.34,549.32,114.05,551.6,109.5z M588.35,114.86c-2.49-2.59-5.51-3.88-9.08-3.88c-3.57,0-6.6,1.28-9.08,3.83
		c-2.49,2.56-3.73,6.07-3.73,10.55c0,4.48,1.24,8.03,3.73,10.66c2.48,2.62,5.51,3.94,9.08,3.94c3.57,0,6.6-1.29,9.08-3.89
		c2.48-2.59,3.73-6.12,3.73-10.6C592.08,120.99,590.83,117.45,588.35,114.86z"/>
	<path fill="#344854" d="M648.25,97.85c3.15-1.68,6.75-2.52,10.82-2.52c4.83,0,9.2,1.23,13.12,3.67c3.92,2.45,7.02,5.95,9.29,10.5
		c2.27,4.55,3.41,9.83,3.41,15.85c0,6.02-1.14,11.32-3.41,15.91c-2.28,4.58-5.37,8.12-9.29,10.6c-3.92,2.49-8.29,3.73-13.12,3.73
		c-4.13,0-7.74-0.82-10.82-2.47c-3.08-1.64-5.5-3.83-7.25-6.56v8.19h-17.96v-77.7h17.96v27.4
		C642.69,101.73,645.1,99.53,648.25,97.85z M662.9,114.81c-2.49-2.55-5.55-3.83-9.19-3.83c-3.57,0-6.6,1.3-9.08,3.88
		c-2.49,2.59-3.73,6.13-3.73,10.61c0,4.48,1.24,8.02,3.73,10.6c2.48,2.59,5.51,3.89,9.08,3.89s6.62-1.31,9.13-3.94
		c2.52-2.62,3.78-6.18,3.78-10.66C666.63,120.88,665.38,117.36,662.9,114.81z"/>
	<path fill="#344854" d="M704.53,152.97c-3.99-1.75-7.14-4.15-9.45-7.19c-2.31-3.04-3.61-6.46-3.88-10.24h17.75
		c0.21,2.03,1.15,3.67,2.83,4.93c1.68,1.26,3.74,1.89,6.19,1.89c2.24,0,3.97-0.44,5.2-1.31c1.22-0.88,1.84-2.01,1.84-3.41
		c0-1.68-0.88-2.92-2.62-3.73c-1.75-0.8-4.59-1.7-8.5-2.68c-4.2-0.98-7.7-2.01-10.5-3.1c-2.8-1.08-5.22-2.8-7.25-5.15
		c-2.03-2.34-3.04-5.51-3.04-9.5c0-3.36,0.93-6.42,2.78-9.19c1.85-2.76,4.58-4.95,8.19-6.56c3.6-1.61,7.89-2.42,12.86-2.42
		c7.35,0,13.14,1.82,17.38,5.46c4.23,3.64,6.67,8.47,7.3,14.49H725c-0.28-2.03-1.17-3.64-2.68-4.83c-1.51-1.19-3.48-1.79-5.93-1.79
		c-2.1,0-3.71,0.4-4.83,1.21c-1.12,0.81-1.68,1.91-1.68,3.31c0,1.68,0.89,2.94,2.68,3.78s4.57,1.68,8.35,2.52
		c4.34,1.12,7.88,2.22,10.6,3.31c2.73,1.09,5.13,2.83,7.19,5.25c2.06,2.42,3.13,5.65,3.2,9.71c0,3.43-0.96,6.49-2.89,9.19
		c-1.93,2.7-4.69,4.81-8.29,6.35c-3.61,1.54-7.79,2.31-12.55,2.31C713.07,155.6,708.52,154.72,704.53,152.97z"/>
</g>
<g>
	<polygon fill="#0353A4" points="49.1,4.81 5.49,29.6 5.49,154.55 113.93,217.04 221.87,154.54 221.87,29.59 178.14,4.91 
		173.98,12.28 213.41,34.53 213.41,149.66 113.92,207.27 13.96,149.66 13.96,34.52 53.28,12.17 49.1,4.81 	"/>
	<polygon fill="#0353A4" points="90.54,28.8 47.35,53.56 47.5,133 114.4,170.51 180.69,132.99 181.4,54.41 137.79,29.15 
		133.55,36.47 172.89,59.26 172.27,128.04 114.38,160.8 55.96,128.03 55.82,58.46 94.75,36.14 90.54,28.8 	"/>
	<polyline fill="#0353A4" points="8.34,36.36 48.48,59.34 52.69,51.99 12.55,29.02 	"/>
	<polygon fill="#0353A4" points="141.37,74.71 141.37,33.66 176.13,13.48 216.03,36.2 220.22,28.85 176.09,3.72 132.9,28.79 
		132.9,74.71 141.37,74.71 	"/>
	<polyline fill="#0353A4" points="215.41,28.8 175.42,51.96 179.66,59.28 219.65,36.13 	"/>
	<polygon fill="#0353A4" points="82.13,145.08 82.34,84.36 113.92,66.07 146.68,85.11 146.68,144.1 155.15,144.1 155.15,80.24 
		113.93,56.29 73.89,79.48 73.67,145.05 82.13,145.08 	"/>
	<polygon fill="#0353A4" points="76.04,86.6 109.69,106.19 109.69,163.55 109.69,211.55 118.16,211.55 118.16,163.55 118.16,101.32 
		80.29,79.29 76.04,86.6 	"/>
	<polyline fill="#0353A4" points="148.63,78.65 111.68,100.09 115.93,107.41 152.88,85.97 	"/>
	<polygon fill="#0353A4" points="13.52,35.14 51.19,13.38 86.97,34.03 86.97,74.47 95.43,74.47 95.43,29.15 51.19,3.61 9.29,27.82 
		13.52,35.14 	"/>
</g>
</svg>
